<svg id="visual" viewBox="0 0 900 600" width="900" height="600" xmlns="http://www.w3.org/2000/svg" xmlns:xlink="http://www.w3.org/1999/xlink" version="1.1"><rect x="0" y="0" width="900" height="600" fill="#0a8794"></rect><path d="M0 363L129 362L257 409L386 374L514 416L643 384L771 364L900 431L900 601L771 601L643 601L514 601L386 601L257 601L129 601L0 601Z" fill="#155606"></path><path d="M0 449L129 450L257 427L386 460L514 463L643 423L771 426L900 404L900 601L771 601L643 601L514 601L386 601L257 601L129 601L0 601Z" fill="#034815"></path><path d="M0 447L129 468L257 509L386 455L514 454L643 494L771 476L900 471L900 601L771 601L643 601L514 601L386 601L257 601L129 601L0 601Z" fill="#00391a"></path><path d="M0 509L129 536L257 542L386 534L514 530L643 518L771 502L900 507L900 601L771 601L643 601L514 601L386 601L257 601L129 601L0 601Z" fill="#002b1a"></path><path d="M0 560L129 556L257 544L386 568L514 525L643 530L771 539L900 525L900 601L771 601L643 601L514 601L386 601L257 601L129 601L0 601Z" fill="#021d16"></path></svg>