<svg id="visual" viewBox="0 0 900 600" width="900" height="600" xmlns="http://www.w3.org/2000/svg" xmlns:xlink="http://www.w3.org/1999/xlink" version="1.1"><rect x="0" y="0" width="900" height="600" fill="#EBF2E9"></rect><path d="M735 600L710.5 585.7C686 571.3 637 542.7 636.2 514.2C635.3 485.7 682.7 457.3 697.7 428.8C712.7 400.3 695.3 371.7 668 343C640.7 314.3 603.3 285.7 590.3 257C577.3 228.3 588.7 199.7 605.8 171.2C623 142.7 646 114.3 667.5 85.8C689 57.3 709 28.7 719 14.3L729 0L900 0L900 14.3C900 28.7 900 57.3 900 85.8C900 114.3 900 142.7 900 171.2C900 199.7 900 228.3 900 257C900 285.7 900 314.3 900 343C900 371.7 900 400.3 900 428.8C900 457.3 900 485.7 900 514.2C900 542.7 900 571.3 900 585.7L900 600Z" fill="#3A9E1E" stroke-linecap="round" stroke-linejoin="miter"></path></svg>